# xmcd
#
# Track frame offsets:
#	150
#	15087
#	30003
#	46498
#	60617
#	76884
#	93970
#	111696
#	127236
#	142784
#	159123
#	174826
#	188797
#	204285
#	217230
#	232341
#	244677
#
# Disc length: 3492
#
# Revision: 3
# Processed by: cddbd v1.5.1PL0 Copyright (c) Steve Scherf et al.
# Submitted via: FreeRIP 2.60 
# Normalized: r2:DSETVAR1,TDELIM( - )
#
DISCID=d90da211
DTITLE=Various Artist - Promo Only Country Radio Feburary 2001
DYEAR=2001
DGENRE=Country
TTITLE0=Brooks and Dunn - Ain't Nothing 'Bout You
TTITLE1=LeAnn Rimes - But I Do Love You
TTITLE2=Montgomery Gentry - She Couldn't Change Me
TTITLE3=Lorrie Morgan and Sammy Kershaw - He Drinks Tequila
TTITLE4=Diamond Rio - One More Day
TTITLE5=Hal Katcham - She Is
TTITLE6=Sara Evans - I Could Not Ask For More
TTITLE7=Mark McGuinn - Mrs Steven Rudy
TTITLE8=Kortney Kayle - Don't Let Me Down
TTITLE9=Brad Paisley and Chely Wright - Hard To Be A Husband, Hard To Be A Wife
TTITLE10=South 65 - The Most Beautiful Girl
TTITLE11=Craig Morgan - I Want Us Back
TTITLE12=KT Oslin - Live Close By, Visit Often
TTITLE13=Jolie and The Wanted - Boom
TTITLE14=Eddy Arnold - To Life
TTITLE15=Kacy Jones - Every Man I Love Is Either Married, Gay, Or Dead
TTITLE16=Lydia Miller - Out Of Loneliness
EXTD=
EXTT0=
EXTT1=
EXTT2=
EXTT3=
EXTT4=
EXTT5=
EXTT6=
EXTT7=
EXTT8=
EXTT9=
EXTT10=
EXTT11=
EXTT12=
EXTT13=
EXTT14=
EXTT15=
EXTT16=
PLAYORDER=
